<mxfile host="app.diagrams.net" agent="Mozilla/5.0 (Windows NT 10.0; Win64; x64) AppleWebKit/537.36 (KHTML, like Gecko) Chrome/129.0.0.0 Safari/537.36 Edg/129.0.0.0" version="24.7.17">
  <diagram name="Página-1" id="MFvBCI-e6w1yFWtb7_3p">
    <mxGraphModel dx="2066" dy="1109" grid="1" gridSize="10" guides="1" tooltips="1" connect="1" arrows="1" fold="1" page="1" pageScale="1" pageWidth="827" pageHeight="1169" math="0" shadow="0">
      <root>
        <mxCell id="0" />
        <mxCell id="1" parent="0" />
        <mxCell id="HxuWuxmSKsvOAfOaySzU-3" style="edgeStyle=orthogonalEdgeStyle;rounded=0;orthogonalLoop=1;jettySize=auto;html=1;entryX=0.5;entryY=0;entryDx=0;entryDy=0;" edge="1" parent="1" source="HxuWuxmSKsvOAfOaySzU-1" target="HxuWuxmSKsvOAfOaySzU-2">
          <mxGeometry relative="1" as="geometry" />
        </mxCell>
        <mxCell id="HxuWuxmSKsvOAfOaySzU-1" value="" style="ellipse;whiteSpace=wrap;html=1;aspect=fixed;" vertex="1" parent="1">
          <mxGeometry x="394" width="40" height="40" as="geometry" />
        </mxCell>
        <mxCell id="HxuWuxmSKsvOAfOaySzU-10" style="edgeStyle=orthogonalEdgeStyle;rounded=0;orthogonalLoop=1;jettySize=auto;html=1;entryX=0.5;entryY=0;entryDx=0;entryDy=0;" edge="1" parent="1" source="HxuWuxmSKsvOAfOaySzU-2" target="HxuWuxmSKsvOAfOaySzU-9">
          <mxGeometry relative="1" as="geometry" />
        </mxCell>
        <mxCell id="HxuWuxmSKsvOAfOaySzU-2" value="El usuario abre la plataforma" style="rounded=1;whiteSpace=wrap;html=1;" vertex="1" parent="1">
          <mxGeometry x="354" y="80" width="120" height="60" as="geometry" />
        </mxCell>
        <mxCell id="HxuWuxmSKsvOAfOaySzU-12" style="edgeStyle=orthogonalEdgeStyle;rounded=0;orthogonalLoop=1;jettySize=auto;html=1;entryX=0.5;entryY=0;entryDx=0;entryDy=0;" edge="1" parent="1" source="HxuWuxmSKsvOAfOaySzU-9" target="HxuWuxmSKsvOAfOaySzU-11">
          <mxGeometry relative="1" as="geometry" />
        </mxCell>
        <mxCell id="HxuWuxmSKsvOAfOaySzU-9" value="Rellena los campos: Rut, Contraseña y el tipo de cargo (ADMINISTRADOR)" style="rounded=1;whiteSpace=wrap;html=1;" vertex="1" parent="1">
          <mxGeometry x="349" y="180" width="130" height="60" as="geometry" />
        </mxCell>
        <mxCell id="HxuWuxmSKsvOAfOaySzU-14" style="edgeStyle=orthogonalEdgeStyle;rounded=0;orthogonalLoop=1;jettySize=auto;html=1;entryX=0.5;entryY=0;entryDx=0;entryDy=0;" edge="1" parent="1" source="HxuWuxmSKsvOAfOaySzU-11" target="HxuWuxmSKsvOAfOaySzU-13">
          <mxGeometry relative="1" as="geometry" />
        </mxCell>
        <mxCell id="HxuWuxmSKsvOAfOaySzU-11" value="Accede a la plataforma" style="rounded=1;whiteSpace=wrap;html=1;" vertex="1" parent="1">
          <mxGeometry x="354" y="280" width="120" height="60" as="geometry" />
        </mxCell>
        <mxCell id="HxuWuxmSKsvOAfOaySzU-19" style="edgeStyle=orthogonalEdgeStyle;rounded=0;orthogonalLoop=1;jettySize=auto;html=1;entryX=0.5;entryY=0;entryDx=0;entryDy=0;" edge="1" parent="1" source="HxuWuxmSKsvOAfOaySzU-13" target="HxuWuxmSKsvOAfOaySzU-18">
          <mxGeometry relative="1" as="geometry" />
        </mxCell>
        <mxCell id="HxuWuxmSKsvOAfOaySzU-13" value="En ese momento se visualizan todos los usuarios del sistema" style="rounded=1;whiteSpace=wrap;html=1;" vertex="1" parent="1">
          <mxGeometry x="354" y="380" width="120" height="60" as="geometry" />
        </mxCell>
        <mxCell id="HxuWuxmSKsvOAfOaySzU-25" style="edgeStyle=orthogonalEdgeStyle;rounded=0;orthogonalLoop=1;jettySize=auto;html=1;entryX=0.5;entryY=0;entryDx=0;entryDy=0;" edge="1" parent="1" source="HxuWuxmSKsvOAfOaySzU-18" target="HxuWuxmSKsvOAfOaySzU-24">
          <mxGeometry relative="1" as="geometry" />
        </mxCell>
        <mxCell id="HxuWuxmSKsvOAfOaySzU-18" value="Seleccionará &quot;Ingresar Usuarios&quot;" style="rounded=1;whiteSpace=wrap;html=1;" vertex="1" parent="1">
          <mxGeometry x="354" y="470" width="120" height="60" as="geometry" />
        </mxCell>
        <mxCell id="HxuWuxmSKsvOAfOaySzU-23" style="edgeStyle=orthogonalEdgeStyle;rounded=0;orthogonalLoop=1;jettySize=auto;html=1;entryX=0.5;entryY=0;entryDx=0;entryDy=0;" edge="1" parent="1" source="HxuWuxmSKsvOAfOaySzU-20" target="HxuWuxmSKsvOAfOaySzU-22">
          <mxGeometry relative="1" as="geometry" />
        </mxCell>
        <mxCell id="HxuWuxmSKsvOAfOaySzU-20" value="Selecciona&amp;nbsp;&lt;div&gt;&quot;Ingreso Estudiante&quot;&lt;/div&gt;" style="rounded=1;whiteSpace=wrap;html=1;" vertex="1" parent="1">
          <mxGeometry x="150" y="690" width="120" height="60" as="geometry" />
        </mxCell>
        <mxCell id="HxuWuxmSKsvOAfOaySzU-32" style="edgeStyle=orthogonalEdgeStyle;rounded=0;orthogonalLoop=1;jettySize=auto;html=1;entryX=0.5;entryY=0;entryDx=0;entryDy=0;" edge="1" parent="1" source="HxuWuxmSKsvOAfOaySzU-22" target="HxuWuxmSKsvOAfOaySzU-31">
          <mxGeometry relative="1" as="geometry" />
        </mxCell>
        <mxCell id="HxuWuxmSKsvOAfOaySzU-22" value="Se rellena la información correspondiente al alumno" style="rounded=1;whiteSpace=wrap;html=1;" vertex="1" parent="1">
          <mxGeometry x="150" y="800" width="120" height="60" as="geometry" />
        </mxCell>
        <mxCell id="HxuWuxmSKsvOAfOaySzU-29" style="edgeStyle=orthogonalEdgeStyle;rounded=0;orthogonalLoop=1;jettySize=auto;html=1;" edge="1" parent="1" source="HxuWuxmSKsvOAfOaySzU-24" target="HxuWuxmSKsvOAfOaySzU-20">
          <mxGeometry relative="1" as="geometry" />
        </mxCell>
        <mxCell id="HxuWuxmSKsvOAfOaySzU-30" style="edgeStyle=orthogonalEdgeStyle;rounded=0;orthogonalLoop=1;jettySize=auto;html=1;" edge="1" parent="1" source="HxuWuxmSKsvOAfOaySzU-24" target="HxuWuxmSKsvOAfOaySzU-27">
          <mxGeometry relative="1" as="geometry" />
        </mxCell>
        <mxCell id="HxuWuxmSKsvOAfOaySzU-24" value="El sistema muestra la opcion de agregar estudiantes y usuarios del sistema" style="rhombus;whiteSpace=wrap;html=1;" vertex="1" parent="1">
          <mxGeometry x="274" y="590" width="280" height="90" as="geometry" />
        </mxCell>
        <mxCell id="HxuWuxmSKsvOAfOaySzU-26" style="edgeStyle=orthogonalEdgeStyle;rounded=0;orthogonalLoop=1;jettySize=auto;html=1;entryX=0.5;entryY=0;entryDx=0;entryDy=0;" edge="1" parent="1" source="HxuWuxmSKsvOAfOaySzU-27" target="HxuWuxmSKsvOAfOaySzU-28">
          <mxGeometry relative="1" as="geometry" />
        </mxCell>
        <mxCell id="HxuWuxmSKsvOAfOaySzU-27" value="Selecciona&amp;nbsp;&lt;div&gt;&quot;Ingreso Usuario&quot;&lt;/div&gt;" style="rounded=1;whiteSpace=wrap;html=1;" vertex="1" parent="1">
          <mxGeometry x="560" y="690" width="120" height="60" as="geometry" />
        </mxCell>
        <mxCell id="HxuWuxmSKsvOAfOaySzU-37" style="edgeStyle=orthogonalEdgeStyle;rounded=0;orthogonalLoop=1;jettySize=auto;html=1;entryX=0.5;entryY=0;entryDx=0;entryDy=0;" edge="1" parent="1" source="HxuWuxmSKsvOAfOaySzU-28" target="HxuWuxmSKsvOAfOaySzU-35">
          <mxGeometry relative="1" as="geometry" />
        </mxCell>
        <mxCell id="HxuWuxmSKsvOAfOaySzU-28" value="Se rellena la información correspondiente al alumno" style="rounded=1;whiteSpace=wrap;html=1;" vertex="1" parent="1">
          <mxGeometry x="560" y="800" width="120" height="60" as="geometry" />
        </mxCell>
        <mxCell id="HxuWuxmSKsvOAfOaySzU-31" value="Datos del estudiante" style="swimlane;whiteSpace=wrap;html=1;" vertex="1" parent="1">
          <mxGeometry x="100" y="900" width="220" height="180" as="geometry" />
        </mxCell>
        <mxCell id="HxuWuxmSKsvOAfOaySzU-33" value="Rut&lt;div&gt;Fecha de Nacimiento&lt;/div&gt;&lt;div&gt;Nombre completo&lt;/div&gt;&lt;div&gt;Previsión&lt;/div&gt;&lt;div&gt;Docente&lt;/div&gt;&lt;div&gt;Curso&lt;/div&gt;&lt;div&gt;Persona referente en el establecimiento&lt;/div&gt;&lt;div&gt;Gustos y preferencias&lt;/div&gt;&lt;div&gt;Dirección&lt;/div&gt;&lt;div&gt;Etc.&lt;/div&gt;" style="text;html=1;align=left;verticalAlign=middle;resizable=0;points=[];autosize=1;strokeColor=none;fillColor=none;" vertex="1" parent="1">
          <mxGeometry x="104" y="920" width="240" height="160" as="geometry" />
        </mxCell>
        <mxCell id="HxuWuxmSKsvOAfOaySzU-35" value="Datos del Usuario" style="swimlane;whiteSpace=wrap;html=1;" vertex="1" parent="1">
          <mxGeometry x="510" y="900" width="220" height="180" as="geometry">
            <mxRectangle x="510" y="900" width="140" height="30" as="alternateBounds" />
          </mxGeometry>
        </mxCell>
        <mxCell id="HxuWuxmSKsvOAfOaySzU-36" value="Nombre&lt;div&gt;Iniciales de nombre&lt;/div&gt;&lt;div&gt;Tipo de Usuario&lt;/div&gt;&lt;div&gt;Curso a cargo&lt;/div&gt;&lt;div&gt;Sucursal&lt;/div&gt;&lt;div&gt;Dirección&lt;/div&gt;&lt;div&gt;E-Mail&lt;/div&gt;&lt;div&gt;Celular&lt;/div&gt;&lt;div&gt;Contraseña&lt;/div&gt;" style="text;html=1;align=left;verticalAlign=middle;resizable=0;points=[];autosize=1;strokeColor=none;fillColor=none;" vertex="1" parent="1">
          <mxGeometry x="510" y="920" width="130" height="140" as="geometry" />
        </mxCell>
        <mxCell id="HxuWuxmSKsvOAfOaySzU-55" style="edgeStyle=orthogonalEdgeStyle;rounded=0;orthogonalLoop=1;jettySize=auto;html=1;entryX=0.5;entryY=1;entryDx=0;entryDy=0;" edge="1" parent="1" source="HxuWuxmSKsvOAfOaySzU-39" target="HxuWuxmSKsvOAfOaySzU-44">
          <mxGeometry relative="1" as="geometry" />
        </mxCell>
        <mxCell id="HxuWuxmSKsvOAfOaySzU-39" value="Seleccionará &quot;Mantenedores&quot;" style="rounded=1;whiteSpace=wrap;html=1;" vertex="1" parent="1">
          <mxGeometry x="515" y="280" width="120" height="60" as="geometry" />
        </mxCell>
        <mxCell id="HxuWuxmSKsvOAfOaySzU-56" value="" style="edgeStyle=orthogonalEdgeStyle;rounded=0;orthogonalLoop=1;jettySize=auto;html=1;" edge="1" parent="1" source="HxuWuxmSKsvOAfOaySzU-44" target="HxuWuxmSKsvOAfOaySzU-46">
          <mxGeometry relative="1" as="geometry" />
        </mxCell>
        <mxCell id="HxuWuxmSKsvOAfOaySzU-44" value="Seleccionará&amp;nbsp;&lt;div&gt;&quot;Objetivos&quot; -&amp;gt; &quot;&lt;span style=&quot;background-color: initial;&quot;&gt;Áreas&lt;/span&gt;&lt;span style=&quot;background-color: initial;&quot;&gt;&quot;&lt;/span&gt;&lt;/div&gt;" style="rounded=1;whiteSpace=wrap;html=1;" vertex="1" parent="1">
          <mxGeometry x="515" y="180" width="120" height="60" as="geometry" />
        </mxCell>
        <mxCell id="HxuWuxmSKsvOAfOaySzU-57" value="" style="edgeStyle=orthogonalEdgeStyle;rounded=0;orthogonalLoop=1;jettySize=auto;html=1;" edge="1" parent="1" source="HxuWuxmSKsvOAfOaySzU-46" target="HxuWuxmSKsvOAfOaySzU-48">
          <mxGeometry relative="1" as="geometry" />
        </mxCell>
        <mxCell id="HxuWuxmSKsvOAfOaySzU-46" value="Seleccionará&amp;nbsp;&lt;div&gt;&quot;Ingresar Áreas&quot;&lt;/div&gt;" style="rounded=1;whiteSpace=wrap;html=1;" vertex="1" parent="1">
          <mxGeometry x="515" y="80" width="120" height="60" as="geometry" />
        </mxCell>
        <mxCell id="HxuWuxmSKsvOAfOaySzU-48" value="Escribe el nombre del área que desea ingresar ej: &quot;Lenguaje&quot;" style="rounded=1;whiteSpace=wrap;html=1;" vertex="1" parent="1">
          <mxGeometry x="680" y="80" width="120" height="60" as="geometry" />
        </mxCell>
        <mxCell id="HxuWuxmSKsvOAfOaySzU-53" value="" style="curved=1;endArrow=classic;html=1;rounded=0;entryX=0.5;entryY=1;entryDx=0;entryDy=0;" edge="1" parent="1" target="HxuWuxmSKsvOAfOaySzU-39">
          <mxGeometry width="50" height="50" relative="1" as="geometry">
            <mxPoint x="474" y="410" as="sourcePoint" />
            <mxPoint x="524" y="360" as="targetPoint" />
            <Array as="points">
              <mxPoint x="575" y="410" />
            </Array>
          </mxGeometry>
        </mxCell>
        <mxCell id="HxuWuxmSKsvOAfOaySzU-60" value="Cada área tiene sus objetivos de aprendizaje ligados" style="ellipse;shape=cloud;whiteSpace=wrap;html=1;" vertex="1" parent="1">
          <mxGeometry x="820" y="90" width="160" height="80" as="geometry" />
        </mxCell>
        <mxCell id="HxuWuxmSKsvOAfOaySzU-61" value="" style="endArrow=none;dashed=1;html=1;rounded=0;exitX=1;exitY=0.5;exitDx=0;exitDy=0;entryX=0.069;entryY=0.313;entryDx=0;entryDy=0;entryPerimeter=0;" edge="1" parent="1" source="HxuWuxmSKsvOAfOaySzU-48" target="HxuWuxmSKsvOAfOaySzU-60">
          <mxGeometry width="50" height="50" relative="1" as="geometry">
            <mxPoint x="830" y="200" as="sourcePoint" />
            <mxPoint x="880" y="150" as="targetPoint" />
          </mxGeometry>
        </mxCell>
        <mxCell id="HxuWuxmSKsvOAfOaySzU-62" value="Luego de agregar las áreas, presionara el icono del programa lo que llevara al administrador a la pantalla de inicio" style="rhombus;whiteSpace=wrap;html=1;" vertex="1" parent="1">
          <mxGeometry x="670" y="220" width="180" height="150" as="geometry" />
        </mxCell>
        <mxCell id="HxuWuxmSKsvOAfOaySzU-63" value="" style="curved=1;endArrow=classic;html=1;rounded=0;exitX=0.367;exitY=0.983;exitDx=0;exitDy=0;exitPerimeter=0;entryX=0.428;entryY=0.073;entryDx=0;entryDy=0;entryPerimeter=0;" edge="1" parent="1" source="HxuWuxmSKsvOAfOaySzU-48" target="HxuWuxmSKsvOAfOaySzU-62">
          <mxGeometry width="50" height="50" relative="1" as="geometry">
            <mxPoint x="670" y="150" as="sourcePoint" />
            <mxPoint x="740" y="370" as="targetPoint" />
            <Array as="points">
              <mxPoint x="770" y="160" />
              <mxPoint x="690" y="200" />
            </Array>
          </mxGeometry>
        </mxCell>
        <mxCell id="HxuWuxmSKsvOAfOaySzU-64" value="" style="rounded=1;whiteSpace=wrap;html=1;" vertex="1" parent="1">
          <mxGeometry x="540" y="470" width="120" height="60" as="geometry" />
        </mxCell>
        <mxCell id="HxuWuxmSKsvOAfOaySzU-65" value="" style="endArrow=classic;html=1;rounded=0;exitX=0.389;exitY=0.88;exitDx=0;exitDy=0;entryX=0.5;entryY=0;entryDx=0;entryDy=0;exitPerimeter=0;" edge="1" parent="1" source="HxuWuxmSKsvOAfOaySzU-62" target="HxuWuxmSKsvOAfOaySzU-64">
          <mxGeometry width="50" height="50" relative="1" as="geometry">
            <mxPoint x="730" y="460" as="sourcePoint" />
            <mxPoint x="780" y="410" as="targetPoint" />
          </mxGeometry>
        </mxCell>
        <mxCell id="HxuWuxmSKsvOAfOaySzU-68" value="" style="edgeStyle=orthogonalEdgeStyle;rounded=0;orthogonalLoop=1;jettySize=auto;html=1;" edge="1" parent="1" source="HxuWuxmSKsvOAfOaySzU-66" target="HxuWuxmSKsvOAfOaySzU-67">
          <mxGeometry relative="1" as="geometry" />
        </mxCell>
        <mxCell id="HxuWuxmSKsvOAfOaySzU-66" value="Seleccionará&amp;nbsp;&lt;div&gt;&quot;Objetivos Semestrales&quot;&lt;/div&gt;" style="rounded=1;whiteSpace=wrap;html=1;" vertex="1" parent="1">
          <mxGeometry x="540" y="470" width="120" height="60" as="geometry" />
        </mxCell>
        <mxCell id="HxuWuxmSKsvOAfOaySzU-70" value="" style="edgeStyle=orthogonalEdgeStyle;rounded=0;orthogonalLoop=1;jettySize=auto;html=1;" edge="1" parent="1" source="HxuWuxmSKsvOAfOaySzU-67" target="HxuWuxmSKsvOAfOaySzU-69">
          <mxGeometry relative="1" as="geometry" />
        </mxCell>
        <mxCell id="HxuWuxmSKsvOAfOaySzU-67" value="Seleccionará&amp;nbsp;&lt;div&gt;&quot;Ingresar&quot;&lt;/div&gt;" style="rounded=1;whiteSpace=wrap;html=1;" vertex="1" parent="1">
          <mxGeometry x="700" y="470" width="120" height="60" as="geometry" />
        </mxCell>
        <mxCell id="HxuWuxmSKsvOAfOaySzU-75" value="" style="edgeStyle=orthogonalEdgeStyle;rounded=0;orthogonalLoop=1;jettySize=auto;html=1;" edge="1" parent="1" source="HxuWuxmSKsvOAfOaySzU-69" target="HxuWuxmSKsvOAfOaySzU-73">
          <mxGeometry relative="1" as="geometry" />
        </mxCell>
        <mxCell id="HxuWuxmSKsvOAfOaySzU-69" value="Rellenara los datos requeridos" style="rounded=1;whiteSpace=wrap;html=1;" vertex="1" parent="1">
          <mxGeometry x="850" y="470" width="120" height="60" as="geometry" />
        </mxCell>
        <mxCell id="HxuWuxmSKsvOAfOaySzU-73" value="Ingreso de Objetivo de aprendizaje" style="swimlane;whiteSpace=wrap;html=1;" vertex="1" parent="1">
          <mxGeometry x="800" y="620" width="220" height="120" as="geometry">
            <mxRectangle x="510" y="900" width="140" height="30" as="alternateBounds" />
          </mxGeometry>
        </mxCell>
        <mxCell id="HxuWuxmSKsvOAfOaySzU-74" value="Estudiante&lt;div&gt;Docente&lt;/div&gt;&lt;div&gt;Año&lt;/div&gt;&lt;div&gt;Semestre&lt;/div&gt;&lt;div&gt;Área&lt;/div&gt;&lt;div&gt;Objetivo de Aprendizaje&lt;/div&gt;&lt;div&gt;&lt;br&gt;&lt;/div&gt;" style="text;html=1;align=left;verticalAlign=middle;resizable=0;points=[];autosize=1;strokeColor=none;fillColor=none;" vertex="1" parent="HxuWuxmSKsvOAfOaySzU-73">
          <mxGeometry y="20" width="150" height="110" as="geometry" />
        </mxCell>
      </root>
    </mxGraphModel>
  </diagram>
</mxfile>
